<?xml version="1.0" encoding="utf-8"?>
<!-- Generator: Adobe Illustrator 22.0.1, SVG Export Plug-In . SVG Version: 6.00 Build 0)  -->
<svg version="1.1" id="圖層_1" xmlns="http://www.w3.org/2000/svg" xmlns:xlink="http://www.w3.org/1999/xlink" x="0px" y="0px"
	 viewBox="0 0 20 20" style="enable-background:new 0 0 20 20;" xml:space="preserve">
<style type="text/css">
	.st0{fill:#C1C1C1;}
</style>
<title>add2</title>
<path class="st0" d="M17.3,4.1h-6.9c-0.3,0-0.6-0.3-0.6-0.6V3.2c0-0.3,0.3-0.6,0.6-0.6h6.9c0.3,0,0.6,0.3,0.6,0.6v0.3
	C18,3.8,17.7,4.1,17.3,4.1z"/>
<path class="st0" d="M17.3,10.2h-6.9c-0.3,0-0.6-0.3-0.6-0.6V9.3c0-0.3,0.3-0.6,0.6-0.6h6.9C17.7,8.7,18,9,18,9.3v0.3
	C18,10,17.7,10.2,17.3,10.2z"/>
<path class="st0" d="M17.3,16.4h-6.9c-0.3,0-0.6-0.3-0.6-0.6v-0.3c0-0.3,0.3-0.6,0.6-0.6h6.9c0.3,0,0.6,0.3,0.6,0.6v0.3
	C18,16.1,17.7,16.4,17.3,16.4z"/>
<g>
	<path d="M5.5,5.4H1.4V5.1h1.2c0-0.1-0.1-0.2-0.1-0.3H2.1V3.8h2.8v0.9H4.5C4.4,4.9,4.4,5,4.3,5.1h1.2V5.4z M5.4,3.4H5V3.1H2v0.4H1.5
		V2.8h3.9V3.4z M5.4,2H3.7v0.3h1.4v0.3H1.9V2.3h1.4V2H1.6V1.7h1.7V1.4h0.4v0.3h1.7V2z M4.8,3.6H2.1V3.3h2.7V3.6z M4.5,4.4V4.2H2.5
		v0.3H4.5z M4,4.7H2.9C3,4.8,3,4.9,3.1,5.1h0.8C3.9,4.9,4,4.8,4,4.7z"/>
	<path d="M8.7,3.6L8.4,3.9C8.2,3.7,7.9,3.4,7.6,3.2l0.3-0.3C8.2,3.1,8.5,3.3,8.7,3.6z"/>
	<path d="M3.8,10.9H2.4l0.2,0.2c-0.3,0.2-0.7,0.3-1,0.4l-0.2-0.3c0.3-0.1,0.6-0.2,0.9-0.3H1.7V9.4h2.1V10.9z M5.6,10.7
		c-0.1,0.3-0.2,0.5-0.2,0.7c-0.1,0.1-0.2,0.2-0.3,0.2c-0.2,0-0.4-0.3-0.6-0.8c-0.2-0.5-0.2-1.3-0.3-2.5H1.4V7.9h2.7V7.4h0.4
		c0,0.1,0,0.1,0,0.2c0,0.1,0,0.2,0,0.3h1v0.4h-1c0,0.9,0.1,1.6,0.2,2.1S5,11,5,11c0.1,0,0.1-0.2,0.2-0.6L5.6,10.7z M4,9.2H1.5V8.9H4
		V9.2z M3.7,8.7H1.8V8.4h1.9V8.7z M3.4,9.8V9.6H2.1v0.2H3.4z M3.4,10.2V10H2.1v0.2H3.4z M3.4,10.6v-0.2H2.1v0.2H3.4z M4.2,11.2
		L4,11.5c-0.3-0.1-0.6-0.2-1-0.3l0.2-0.3C3.6,11,4,11.1,4.2,11.2z M5.4,7.6L5.1,7.9C5,7.8,4.9,7.7,4.7,7.6L5,7.3
		C5.1,7.4,5.3,7.5,5.4,7.6z"/>
	<path d="M8.7,9.6L8.4,9.9C8.2,9.7,7.9,9.4,7.6,9.2l0.3-0.3C8.2,9.1,8.5,9.3,8.7,9.6z"/>
	<path d="M5.6,15.7L5.4,16c-0.7-0.1-1.4-0.4-1.9-0.7C3,15.7,2.3,15.9,1.6,16l-0.2-0.4c0.8-0.1,1.5-0.4,2.1-0.8L3.7,15l-0.1-0.2
		c0.2-0.1,0.4-0.3,0.5-0.6l0.4,0.1c-0.1,0.2-0.2,0.3-0.3,0.4c0.2,0,0.5,0,0.7-0.1c0-0.1-0.1-0.1-0.2-0.2L5,14.3
		c0.2,0.3,0.4,0.5,0.5,0.7l-0.3,0.2c0-0.1-0.1-0.1-0.1-0.2c-0.4,0.1-0.8,0.1-1.2,0.1C4.3,15.4,4.9,15.6,5.6,15.7z M3.4,14.9L3.1,15
		c0,0,0,0-0.1-0.1c-0.6,0.1-1.1,0.2-1.5,0.2l-0.1-0.3c0.2-0.1,0.4-0.3,0.6-0.6l0.4,0.1c-0.1,0.2-0.3,0.3-0.4,0.5
		c0.2,0,0.5-0.1,0.7-0.1c-0.1-0.1-0.1-0.1-0.2-0.2l0.3-0.1C3.1,14.5,3.3,14.7,3.4,14.9z M3.8,15.7c-0.5,0.4-1.1,0.6-1.8,0.8
		l-0.2-0.3c0.7-0.1,1.3-0.3,1.7-0.6L3.8,15.7z M5.1,16.3c-0.8,0.7-1.8,1.1-3.1,1.2l-0.2-0.3c1.2-0.1,2.2-0.4,2.9-1L5.1,16.3z
		 M4.5,16c-0.7,0.5-1.5,0.8-2.4,1l-0.2-0.3c0.9-0.1,1.7-0.4,2.3-0.8L4.5,16z M4.9,14l-0.3,0.2c-0.1-0.1-0.1-0.1-0.2-0.2
		c-0.7,0.1-1.4,0.2-2.1,0.2l-0.1-0.3c0.3-0.1,0.5-0.3,0.8-0.6l0.4,0.1c-0.2,0.2-0.4,0.4-0.6,0.5c0.4,0,0.8,0,1.2-0.1
		c-0.1-0.1-0.1-0.1-0.2-0.2l0.3-0.2C4.5,13.6,4.7,13.8,4.9,14z"/>
	<path d="M8.7,15.6l-0.3,0.3c-0.2-0.3-0.5-0.5-0.8-0.7l0.3-0.3C8.2,15.1,8.5,15.3,8.7,15.6z"/>
</g>
</svg>
