<?xml version="1.0" encoding="utf-8"?>
<!-- Generator: Adobe Illustrator 22.0.1, SVG Export Plug-In . SVG Version: 6.00 Build 0)  -->
<svg version="1.1" id="圖層_1" xmlns="http://www.w3.org/2000/svg" xmlns:xlink="http://www.w3.org/1999/xlink" x="0px" y="0px"
	 viewBox="0 0 20 20" style="enable-background:new 0 0 20 20;" xml:space="preserve">
<style type="text/css">
	.st0{fill:#C1C1C1;}
</style>
<title>add2</title>
<g>
	<path d="M1.9,6C1.3,5.4,1.1,4.7,1.1,3.9c0-0.9,0.3-1.6,0.8-2.2h0.5C1.8,2.3,1.5,3,1.5,3.9c0,0.8,0.3,1.5,0.8,2.2H1.9z"/>
	<path d="M5.2,5.2V4.8h0.8V2.2L5.2,2.4V2l1.4-0.4v3.2h0.8v0.5H5.2z"/>
	<path d="M10.6,6h-0.5c0.5-0.6,0.8-1.4,0.8-2.2c0-0.8-0.3-1.5-0.8-2.2h0.5c0.5,0.6,0.8,1.3,0.8,2.2C11.4,4.7,11.1,5.4,10.6,6z"/>
	<path d="M1.9,12c-0.5-0.6-0.8-1.3-0.8-2.2c0-0.9,0.3-1.6,0.8-2.2h0.5C1.8,8.3,1.5,9,1.5,9.9c0,0.8,0.3,1.5,0.8,2.2H1.9z"/>
	<path d="M5,11.2v-0.4l1.1-1C6.6,9.3,6.8,9,6.8,8.7c0-0.2-0.1-0.4-0.2-0.5C6.6,8.1,6.4,8.1,6.2,8.1c-0.3,0-0.6,0.1-1,0.4V8
		c0.4-0.2,0.7-0.3,1-0.3c0.4,0,0.7,0.1,0.9,0.3s0.3,0.4,0.3,0.7c0,0.2,0,0.3-0.1,0.5S7.1,9.5,6.9,9.7c-0.2,0.2-0.4,0.4-0.7,0.7
		l-0.4,0.4v0h1.7v0.5H5z"/>
	<path d="M10.6,12h-0.5c0.5-0.6,0.8-1.4,0.8-2.2c0-0.8-0.3-1.5-0.8-2.2h0.5c0.5,0.6,0.8,1.3,0.8,2.2C11.4,10.7,11.1,11.4,10.6,12z"
		/>
	<path d="M1.9,18c-0.5-0.6-0.8-1.3-0.8-2.2c0-0.9,0.3-1.6,0.8-2.2h0.5c-0.5,0.6-0.8,1.4-0.8,2.2c0,0.8,0.3,1.5,0.8,2.2H1.9z"/>
	<path d="M5.1,17.1v-0.5c0.3,0.2,0.6,0.3,0.9,0.3c0.2,0,0.4-0.1,0.6-0.2c0.1-0.1,0.2-0.3,0.2-0.4c0-0.2-0.1-0.4-0.3-0.5
		c-0.2-0.1-0.4-0.2-0.7-0.2H5.5v-0.4h0.3c0.3,0,0.5-0.1,0.6-0.2s0.2-0.2,0.2-0.4c0-0.2-0.1-0.3-0.2-0.4c-0.1-0.1-0.3-0.1-0.5-0.1
		c-0.3,0-0.5,0.1-0.7,0.2v-0.5c0.3-0.1,0.6-0.2,0.9-0.2c0.3,0,0.6,0.1,0.8,0.2c0.2,0.2,0.3,0.4,0.3,0.6c0,0.4-0.2,0.7-0.7,0.9v0
		c0.3,0,0.5,0.1,0.6,0.3c0.1,0.2,0.2,0.3,0.2,0.5c0,0.3-0.1,0.6-0.4,0.8s-0.6,0.3-1,0.3C5.7,17.3,5.4,17.2,5.1,17.1z"/>
	<path d="M10.6,18h-0.5c0.5-0.6,0.8-1.4,0.8-2.2c0-0.8-0.3-1.5-0.8-2.2h0.5c0.5,0.6,0.8,1.3,0.8,2.2C11.4,16.7,11.1,17.4,10.6,18z"
		/>
</g>
<path class="st0" d="M17.3,4.1h-4.2c-0.3,0-0.5-0.2-0.5-0.5V3.1c0-0.3,0.2-0.5,0.5-0.5h4.2c0.3,0,0.5,0.2,0.5,0.5v0.5
	C17.8,3.9,17.6,4.1,17.3,4.1z"/>
<path class="st0" d="M17.3,10.2h-4.2c-0.3,0-0.5-0.2-0.5-0.5V9.2c0-0.3,0.2-0.5,0.5-0.5h4.2c0.3,0,0.5,0.2,0.5,0.5v0.5
	C17.8,10,17.6,10.2,17.3,10.2z"/>
<path class="st0" d="M17.3,16.4h-4.2c-0.3,0-0.5-0.2-0.5-0.5v-0.5c0-0.3,0.2-0.5,0.5-0.5h4.2c0.3,0,0.5,0.2,0.5,0.5v0.5
	C17.8,16.2,17.6,16.4,17.3,16.4z"/>
</svg>
