<?xml version="1.0" encoding="utf-8"?>
<!-- Generator: Adobe Illustrator 22.0.1, SVG Export Plug-In . SVG Version: 6.00 Build 0)  -->
<svg version="1.1" id="圖層_1" xmlns="http://www.w3.org/2000/svg" xmlns:xlink="http://www.w3.org/1999/xlink" x="0px" y="0px"
	 viewBox="0 0 20 20" style="enable-background:new 0 0 20 20;" xml:space="preserve">
<style type="text/css">
	.st0{fill:#C1C1C1;}
</style>
<title>add2</title>
<g>
	<path d="M2.3,5.6C1.7,5.1,1.5,4.3,1.5,3.5c0-0.8,0.3-1.6,0.8-2.2h0.5C2.2,1.9,2,2.7,2,3.5C2,4.3,2.2,5,2.7,5.6H2.3z"/>
	<path d="M5.3,4.8H3.2V4.4H4V1.8L3.2,2V1.6l1.3-0.4v3.2h0.8V4.8z"/>
	<path d="M5.6,5.6C6.1,5,6.4,4.3,6.4,3.5c0-0.8-0.3-1.5-0.8-2.2h0.5c0.5,0.6,0.8,1.3,0.8,2.2c0,0.9-0.3,1.6-0.8,2.2H5.6z"/>
	<path d="M7.5,4.6c0-0.1,0-0.2,0.1-0.2c0.1-0.1,0.1-0.1,0.2-0.1c0.1,0,0.2,0,0.2,0.1c0.1,0.1,0.1,0.1,0.1,0.2c0,0.1,0,0.2-0.1,0.2
		C8,4.9,7.9,4.9,7.8,4.9c-0.1,0-0.2,0-0.2-0.1C7.5,4.7,7.5,4.7,7.5,4.6z"/>
	<path d="M2.3,11.6c-0.5-0.6-0.8-1.3-0.8-2.2c0-0.8,0.3-1.6,0.8-2.2h0.5C2.2,7.9,2,8.7,2,9.5c0,0.8,0.3,1.5,0.8,2.2H2.3z"/>
	<path d="M5.2,10.8H3v-0.4l1-1C4.3,9.2,4.4,9,4.6,8.8c0.1-0.2,0.2-0.3,0.2-0.5c0-0.4-0.2-0.6-0.6-0.6c-0.3,0-0.6,0.1-0.9,0.4V7.6
		c0.3-0.2,0.6-0.3,1-0.3c0.3,0,0.6,0.1,0.8,0.3c0.2,0.2,0.3,0.4,0.3,0.7c0,0.2-0.1,0.4-0.2,0.6C5,9.1,4.7,9.3,4.4,9.6l-0.8,0.8v0
		h1.6V10.8z"/>
	<path d="M5.6,11.6c0.5-0.6,0.8-1.3,0.8-2.2c0-0.8-0.3-1.5-0.8-2.2h0.5c0.5,0.6,0.8,1.3,0.8,2.2c0,0.9-0.3,1.6-0.8,2.2H5.6z"/>
	<path d="M7.5,10.6c0-0.1,0-0.2,0.1-0.2c0.1-0.1,0.1-0.1,0.2-0.1c0.1,0,0.2,0,0.2,0.1c0.1,0.1,0.1,0.1,0.1,0.2c0,0.1,0,0.2-0.1,0.2
		c-0.1,0.1-0.1,0.1-0.2,0.1c-0.1,0-0.2,0-0.2-0.1C7.5,10.7,7.5,10.7,7.5,10.6z"/>
	<path d="M2.3,17.6c-0.5-0.6-0.8-1.3-0.8-2.2c0-0.8,0.3-1.6,0.8-2.2h0.5C2.2,13.9,2,14.7,2,15.5c0,0.8,0.3,1.5,0.8,2.2H2.3z"/>
	<path d="M3.1,16.2c0.2,0.2,0.5,0.3,0.8,0.3c0.2,0,0.4-0.1,0.5-0.2c0.1-0.1,0.2-0.3,0.2-0.4c0-0.4-0.3-0.6-0.9-0.6H3.5v-0.4h0.3
		c0.5,0,0.8-0.2,0.8-0.6c0-0.4-0.2-0.5-0.6-0.5c-0.2,0-0.5,0.1-0.7,0.2v-0.5c0.2-0.1,0.5-0.2,0.8-0.2c0.3,0,0.6,0.1,0.8,0.2
		c0.2,0.2,0.3,0.4,0.3,0.6c0,0.5-0.2,0.8-0.7,0.9v0c0.3,0,0.5,0.1,0.6,0.3c0.2,0.2,0.2,0.3,0.2,0.6c0,0.3-0.1,0.6-0.4,0.8
		s-0.5,0.3-0.9,0.3c-0.3,0-0.6-0.1-0.8-0.2V16.2z"/>
	<path d="M5.6,17.6c0.5-0.6,0.8-1.3,0.8-2.2c0-0.8-0.3-1.5-0.8-2.2h0.5c0.5,0.6,0.8,1.3,0.8,2.2c0,0.9-0.3,1.6-0.8,2.2H5.6z"/>
	<path d="M7.5,16.6c0-0.1,0-0.2,0.1-0.2c0.1-0.1,0.1-0.1,0.2-0.1c0.1,0,0.2,0,0.2,0.1c0.1,0.1,0.1,0.1,0.1,0.2c0,0.1,0,0.2-0.1,0.2
		c-0.1,0.1-0.1,0.1-0.2,0.1c-0.1,0-0.2,0-0.2-0.1C7.5,16.7,7.5,16.7,7.5,16.6z"/>
</g>
<path class="st0" d="M17.3,4.1h-6.9c-0.3,0-0.6-0.3-0.6-0.6V3.2c0-0.3,0.3-0.6,0.6-0.6h6.9c0.3,0,0.6,0.3,0.6,0.6v0.3
	C18,3.8,17.7,4.1,17.3,4.1z"/>
<path class="st0" d="M17.3,10.2h-6.9c-0.3,0-0.6-0.3-0.6-0.6V9.3c0-0.3,0.3-0.6,0.6-0.6h6.9C17.7,8.7,18,9,18,9.3v0.3
	C18,10,17.7,10.2,17.3,10.2z"/>
<path class="st0" d="M17.3,16.4h-6.9c-0.3,0-0.6-0.3-0.6-0.6v-0.3c0-0.3,0.3-0.6,0.6-0.6h6.9c0.3,0,0.6,0.3,0.6,0.6v0.3
	C18,16.1,17.7,16.4,17.3,16.4z"/>
</svg>
