<?xml version="1.0" encoding="utf-8"?>
<!-- Generator: Adobe Illustrator 22.0.1, SVG Export Plug-In . SVG Version: 6.00 Build 0)  -->
<svg version="1.1" id="圖層_1" xmlns="http://www.w3.org/2000/svg" xmlns:xlink="http://www.w3.org/1999/xlink" x="0px" y="0px"
	 viewBox="0 0 20 20" style="enable-background:new 0 0 20 20;" xml:space="preserve">
<style type="text/css">
	.st0{fill:#C1C1C1;}
</style>
<title>add2</title>
<path class="st0" d="M17.3,4.1h-6.9c-0.3,0-0.6-0.3-0.6-0.6V3.2c0-0.3,0.3-0.6,0.6-0.6h6.9c0.3,0,0.6,0.3,0.6,0.6v0.3
	C18,3.8,17.7,4.1,17.3,4.1z"/>
<path class="st0" d="M17.3,10.2h-6.9c-0.3,0-0.6-0.3-0.6-0.6V9.3c0-0.3,0.3-0.6,0.6-0.6h6.9C17.7,8.7,18,9,18,9.3v0.3
	C18,10,17.7,10.2,17.3,10.2z"/>
<path class="st0" d="M17.3,16.4h-6.9c-0.3,0-0.6-0.3-0.6-0.6v-0.3c0-0.3,0.3-0.6,0.6-0.6h6.9c0.3,0,0.6,0.3,0.6,0.6v0.3
	C18,16.1,17.7,16.4,17.3,16.4z"/>
<g>
	<path d="M5.5,3.6H3.7v1.4c0,0.1,0,0.2-0.1,0.3C3.6,5.4,3.5,5.4,3.4,5.4s-0.2,0-0.4,0c-0.1,0-0.2,0-0.3,0L2.5,5.1c0.2,0,0.3,0,0.4,0
		c0.1,0,0.2,0,0.3,0c0,0,0.1-0.1,0.1-0.1V3.6H1.5V3.2h1.8V2.6C3.6,2.4,4,2.2,4.3,1.9H2V1.5h3v0.4c-0.4,0.3-0.8,0.7-1.3,1v0.3h1.8
		V3.6z"/>
	<path d="M8.7,3.6L8.4,3.9C8.2,3.7,7.9,3.4,7.6,3.2l0.3-0.3C8.2,3.1,8.5,3.3,8.7,3.6z"/>
	<path d="M5.5,11.4H1.4V11h0.9l0.2-1.4H1.5V9.1h1.1l0.2-1.2h-1V7.5H5L4.8,9.1h0.7v0.4H4.8L4.6,11h0.9V11.4z M4.3,9.5H3L2.8,11h1.4
		L4.3,9.5z M4.5,7.9H3.2L3.1,9.1h1.3L4.5,7.9z"/>
	<path d="M8.7,9.6L8.4,9.9C8.2,9.7,7.9,9.4,7.6,9.2l0.3-0.3C8.2,9.1,8.5,9.3,8.7,9.6z"/>
	<path d="M3,17.1c-0.6,0.2-1,0.3-1.4,0.4l-0.2-0.4c0.4-0.1,0.9-0.2,1.4-0.4L3,17.1z M5.4,14.4H5v-0.4H2v0.4H1.6v-0.8h1.7
		c0-0.1-0.1-0.1-0.1-0.3l0.4-0.1c0,0.1,0.1,0.2,0.1,0.3h1.7V14.4z M5.1,16.7H1.9V15h1.3v-0.3H2.2v-0.4h2.6v0.4H3.7V15h1.4V16.7z
		 M3.3,15.7v-0.3H2.3v0.3H3.3z M3.3,16.3V16H2.3v0.3H3.3z M4.7,15.7v-0.3h-1v0.3H4.7z M4.7,16.3V16h-1v0.3H4.7z M5.6,17.2l-0.2,0.4
		c-0.5-0.2-1-0.3-1.5-0.3l0.2-0.4C4.6,16.9,5.1,17,5.6,17.2z"/>
	<path d="M8.7,15.6l-0.3,0.3c-0.2-0.3-0.5-0.5-0.8-0.7l0.3-0.3C8.2,15.1,8.5,15.3,8.7,15.6z"/>
</g>
</svg>
