<?xml version="1.0" encoding="utf-8"?>
<!-- Generator: Adobe Illustrator 22.0.1, SVG Export Plug-In . SVG Version: 6.00 Build 0)  -->
<svg version="1.1" id="圖層_1" xmlns="http://www.w3.org/2000/svg" xmlns:xlink="http://www.w3.org/1999/xlink" x="0px" y="0px"
	 viewBox="0 0 20 20" style="enable-background:new 0 0 20 20;" xml:space="preserve">
<style type="text/css">
	.st0{fill:#C1C1C1;}
</style>
<title>add2</title>
<path class="st0" d="M17.3,4.1h-6.9c-0.3,0-0.6-0.3-0.6-0.6V3.2c0-0.3,0.3-0.6,0.6-0.6h6.9c0.3,0,0.6,0.3,0.6,0.6v0.3
	C18,3.8,17.7,4.1,17.3,4.1z"/>
<path class="st0" d="M17.3,10.2h-6.9c-0.3,0-0.6-0.3-0.6-0.6V9.3c0-0.3,0.3-0.6,0.6-0.6h6.9C17.7,8.7,18,9,18,9.3v0.3
	C18,10,17.7,10.2,17.3,10.2z"/>
<path class="st0" d="M17.3,16.4h-6.9c-0.3,0-0.6-0.3-0.6-0.6v-0.3c0-0.3,0.3-0.6,0.6-0.6h6.9c0.3,0,0.6,0.3,0.6,0.6v0.3
	C18,16.1,17.7,16.4,17.3,16.4z"/>
<g>
	<path d="M4.5,5.2H2.4V4.8h0.8V2.2L2.4,2.4V2l1.3-0.4v3.2h0.8V5.2z"/>
	<path d="M7.7,3.6L7.4,3.9C7.2,3.7,6.9,3.4,6.6,3.2l0.3-0.3C7.2,3.1,7.5,3.3,7.7,3.6z"/>
	<path d="M4.5,11.2H2.2v-0.4l1-1c0.2-0.2,0.4-0.4,0.5-0.6C3.9,9,3.9,8.9,3.9,8.7c0-0.4-0.2-0.6-0.6-0.6C3,8.1,2.7,8.2,2.4,8.5V8
		c0.3-0.2,0.6-0.3,1-0.3c0.3,0,0.6,0.1,0.8,0.3c0.2,0.2,0.3,0.4,0.3,0.7c0,0.2-0.1,0.4-0.2,0.6C4.2,9.5,4,9.7,3.7,10l-0.8,0.8v0h1.6
		V11.2z"/>
	<path d="M7.7,9.6L7.4,9.9C7.2,9.7,6.9,9.4,6.6,9.2l0.3-0.3C7.2,9.1,7.5,9.3,7.7,9.6z"/>
	<path d="M2.3,16.6c0.2,0.2,0.5,0.3,0.8,0.3c0.2,0,0.4-0.1,0.5-0.2c0.1-0.1,0.2-0.3,0.2-0.4c0-0.4-0.3-0.6-0.9-0.6H2.7v-0.4H3
		c0.5,0,0.8-0.2,0.8-0.6c0-0.4-0.2-0.5-0.6-0.5c-0.2,0-0.5,0.1-0.7,0.2v-0.5c0.2-0.1,0.5-0.2,0.8-0.2c0.3,0,0.6,0.1,0.8,0.2
		c0.2,0.2,0.3,0.4,0.3,0.6c0,0.5-0.2,0.8-0.7,0.9v0c0.3,0,0.5,0.1,0.6,0.3c0.2,0.2,0.2,0.3,0.2,0.6c0,0.3-0.1,0.6-0.4,0.8
		s-0.5,0.3-0.9,0.3c-0.3,0-0.6-0.1-0.8-0.2V16.6z"/>
	<path d="M7.7,15.6l-0.3,0.3c-0.2-0.3-0.5-0.5-0.8-0.7l0.3-0.3C7.2,15.1,7.5,15.3,7.7,15.6z"/>
</g>
</svg>
