<?xml version="1.0" encoding="utf-8"?>
<!-- Generator: Adobe Illustrator 22.0.1, SVG Export Plug-In . SVG Version: 6.00 Build 0)  -->
<svg version="1.1" id="圖層_1" xmlns="http://www.w3.org/2000/svg" xmlns:xlink="http://www.w3.org/1999/xlink" x="0px" y="0px"
	 viewBox="0 0 20 20" style="enable-background:new 0 0 20 20;" xml:space="preserve">
<style type="text/css">
	.st0{fill:#C1C1C1;}
</style>
<title>add2</title>
<path class="st0" d="M17.3,4.1h-6.9c-0.3,0-0.6-0.3-0.6-0.6V3.2c0-0.3,0.3-0.6,0.6-0.6h6.9c0.3,0,0.6,0.3,0.6,0.6v0.3
	C18,3.8,17.7,4.1,17.3,4.1z"/>
<path class="st0" d="M17.3,10.2h-6.9c-0.3,0-0.6-0.3-0.6-0.6V9.3c0-0.3,0.3-0.6,0.6-0.6h6.9C17.7,8.7,18,9,18,9.3v0.3
	C18,10,17.7,10.2,17.3,10.2z"/>
<path class="st0" d="M17.3,16.4h-6.9c-0.3,0-0.6-0.3-0.6-0.6v-0.3c0-0.3,0.3-0.6,0.6-0.6h6.9c0.3,0,0.6,0.3,0.6,0.6v0.3
	C18,16.1,17.7,16.4,17.3,16.4z"/>
<g>
	<path d="M5.3,4.1H3.7v1.4H3.3V4.1H1.7V1.5h3.7V4.1z M3.3,2.5V1.9H2.1v0.7H3.3z M3.3,3.7V3H2.1v0.7H3.3z M4.9,2.5V1.9H3.7v0.7H4.9z
		 M4.9,3.7V3H3.7v0.7H4.9z"/>
	<path d="M8.7,3.6L8.4,3.9C8.2,3.7,7.9,3.4,7.6,3.2l0.3-0.3C8.2,3.1,8.5,3.3,8.7,3.6z"/>
	<path d="M5.5,9.9c-0.1,0.7-0.2,1.1-0.3,1.2c-0.1,0.2-0.3,0.2-0.7,0.3c-0.4,0-1.1,0-2.2,0c-0.3,0-0.5,0-0.6-0.1S1.6,11,1.6,10.9
		c0-0.1,0.1-0.3,0.2-0.5s0.4-0.5,0.8-0.9C2.9,9,3.5,8.5,4.2,7.9H1.7V7.5h3.2v0.4C4.4,8.3,4,8.6,3.6,9c-0.4,0.3-0.7,0.7-1,1
		c-0.3,0.3-0.5,0.5-0.5,0.6S2,10.7,2,10.8c0,0.1,0,0.2,0.1,0.2c0.1,0,0.5,0,1.3,0c0.6,0,0.9,0,1.1,0c0.1,0,0.2,0,0.3-0.1
		c0,0,0.1-0.1,0.1-0.3S5,10.1,5.1,9.8L5.5,9.9z"/>
	<path d="M8.7,9.6L8.4,9.9C8.2,9.7,7.9,9.4,7.6,9.2l0.3-0.3C8.2,9.1,8.5,9.3,8.7,9.6z"/>
	<path d="M5.5,13.9H3.7l0,0.5h1.6V17c0,0.1,0,0.2-0.1,0.2c-0.1,0.1-0.1,0.1-0.2,0.1s-0.2,0-0.4,0c-0.1,0-0.2,0-0.4,0L4.1,17
		c0.4,0,0.7,0,0.7,0c0.1,0,0.1-0.1,0.1-0.2v-2.1H3.6c0,0.1,0,0.2-0.1,0.3c0.6,0.5,1,0.9,1.2,1.3l-0.3,0.3c-0.3-0.4-0.6-0.9-1-1.2
		c-0.2,0.5-0.5,0.9-1,1.2l-0.3-0.3c0.4-0.2,0.6-0.5,0.8-0.7c0.1-0.2,0.3-0.5,0.3-0.9H2.1v2.7H1.6v-3.1h1.6c0-0.1,0-0.3,0-0.5H1.4
		v-0.4h4.1V13.9z"/>
	<path d="M8.7,15.6l-0.3,0.3c-0.2-0.3-0.5-0.5-0.8-0.7l0.3-0.3C8.2,15.1,8.5,15.3,8.7,15.6z"/>
</g>
</svg>
