<?xml version="1.0" encoding="utf-8"?>
<!-- Generator: Adobe Illustrator 22.0.1, SVG Export Plug-In . SVG Version: 6.00 Build 0)  -->
<svg version="1.1" id="圖層_1" xmlns="http://www.w3.org/2000/svg" xmlns:xlink="http://www.w3.org/1999/xlink" x="0px" y="0px"
	 viewBox="0 0 20 20" style="enable-background:new 0 0 20 20;" xml:space="preserve">
<style type="text/css">
	.st0{fill:#C1C1C1;}
</style>
<title>add2</title>
<path class="st0" d="M18.3,4.1h-2.9c-0.2,0-0.4-0.2-0.4-0.4V3c0-0.2,0.2-0.4,0.4-0.4h2.9c0.2,0,0.4,0.2,0.4,0.4v0.7
	C18.7,3.9,18.5,4.1,18.3,4.1z"/>
<path class="st0" d="M18.3,10.2h-2.9c-0.2,0-0.4-0.2-0.4-0.4V9.1c0-0.2,0.2-0.4,0.4-0.4h2.9c0.2,0,0.4,0.2,0.4,0.4v0.7
	C18.7,10.1,18.5,10.2,18.3,10.2z"/>
<path class="st0" d="M18.3,16.4h-2.9c-0.2,0-0.4-0.2-0.4-0.4v-0.7c0-0.2,0.2-0.4,0.4-0.4h2.9c0.2,0,0.4,0.2,0.4,0.4V16
	C18.7,16.2,18.5,16.4,18.3,16.4z"/>
<g>
	<g>
		<path d="M1.4,6C0.8,5.4,0.6,4.7,0.6,3.9c0-0.9,0.3-1.6,0.8-2.2h0.5C1.3,2.3,1,3,1,3.9C1,4.7,1.3,5.4,1.8,6H1.4z"/>
		<path d="M4.7,5.2V4.8h0.8V2.2L4.7,2.4V2l1.4-0.4v3.2h0.8v0.5H4.7z"/>
		<path d="M10.1,6H9.6c0.5-0.6,0.8-1.4,0.8-2.2c0-0.8-0.3-1.5-0.8-2.2h0.5c0.5,0.6,0.8,1.3,0.8,2.2C10.9,4.7,10.6,5.4,10.1,6z"/>
		<path d="M13,5c0-0.1,0-0.2,0.1-0.2c0.1-0.1,0.1-0.1,0.2-0.1c0.1,0,0.2,0,0.2,0.1c0.1,0.1,0.1,0.1,0.1,0.2c0,0.1,0,0.2-0.1,0.2
			c-0.1,0.1-0.1,0.1-0.2,0.1c-0.1,0-0.2,0-0.2-0.1C13.1,5.1,13,5.1,13,5z"/>
		<path d="M1.4,12c-0.5-0.6-0.8-1.3-0.8-2.2c0-0.9,0.3-1.6,0.8-2.2h0.5C1.3,8.3,1,9,1,9.9c0,0.8,0.3,1.5,0.8,2.2H1.4z"/>
		<path d="M4.5,11.2v-0.4l1.1-1C6.1,9.3,6.3,9,6.3,8.7c0-0.2-0.1-0.4-0.2-0.5C6.1,8.1,5.9,8.1,5.7,8.1c-0.3,0-0.6,0.1-1,0.4V8
			c0.4-0.2,0.7-0.3,1-0.3c0.4,0,0.7,0.1,0.9,0.3s0.3,0.4,0.3,0.7c0,0.2,0,0.3-0.1,0.5S6.6,9.5,6.4,9.7c-0.2,0.2-0.4,0.4-0.7,0.7
			l-0.4,0.4v0h1.7v0.5H4.5z"/>
		<path d="M10.1,12H9.6c0.5-0.6,0.8-1.4,0.8-2.2c0-0.8-0.3-1.5-0.8-2.2h0.5c0.5,0.6,0.8,1.3,0.8,2.2C10.9,10.7,10.6,11.4,10.1,12z"
			/>
		<path d="M13,11c0-0.1,0-0.2,0.1-0.2c0.1-0.1,0.1-0.1,0.2-0.1c0.1,0,0.2,0,0.2,0.1c0.1,0.1,0.1,0.1,0.1,0.2c0,0.1,0,0.2-0.1,0.2
			c-0.1,0.1-0.1,0.1-0.2,0.1c-0.1,0-0.2,0-0.2-0.1C13.1,11.1,13,11.1,13,11z"/>
		<path d="M1.4,18c-0.5-0.6-0.8-1.3-0.8-2.2c0-0.9,0.3-1.6,0.8-2.2h0.5C1.3,14.3,1,15,1,15.9c0,0.8,0.3,1.5,0.8,2.2H1.4z"/>
		<path d="M4.6,17.1v-0.5c0.3,0.2,0.6,0.3,0.9,0.3c0.2,0,0.4-0.1,0.6-0.2c0.1-0.1,0.2-0.3,0.2-0.4c0-0.2-0.1-0.4-0.3-0.5
			c-0.2-0.1-0.4-0.2-0.7-0.2H5v-0.4h0.3c0.3,0,0.5-0.1,0.6-0.2s0.2-0.2,0.2-0.4c0-0.2-0.1-0.3-0.2-0.4c-0.1-0.1-0.3-0.1-0.5-0.1
			c-0.3,0-0.5,0.1-0.7,0.2v-0.5c0.3-0.1,0.6-0.2,0.9-0.2c0.3,0,0.6,0.1,0.8,0.2c0.2,0.2,0.3,0.4,0.3,0.6c0,0.4-0.2,0.7-0.7,0.9v0
			c0.3,0,0.5,0.1,0.6,0.3c0.1,0.2,0.2,0.3,0.2,0.5c0,0.3-0.1,0.6-0.4,0.8s-0.6,0.3-1,0.3C5.2,17.3,4.9,17.2,4.6,17.1z"/>
		<path d="M10.1,18H9.6c0.5-0.6,0.8-1.4,0.8-2.2c0-0.8-0.3-1.5-0.8-2.2h0.5c0.5,0.6,0.8,1.3,0.8,2.2C10.9,16.7,10.6,17.4,10.1,18z"
			/>
		<path d="M13,17c0-0.1,0-0.2,0.1-0.2c0.1-0.1,0.1-0.1,0.2-0.1c0.1,0,0.2,0,0.2,0.1c0.1,0.1,0.1,0.1,0.1,0.2c0,0.1,0,0.2-0.1,0.2
			c-0.1,0.1-0.1,0.1-0.2,0.1c-0.1,0-0.2,0-0.2-0.1C13.1,17.1,13,17.1,13,17z"/>
	</g>
</g>
</svg>
