<?xml version="1.0" encoding="utf-8"?>
<!-- Generator: Adobe Illustrator 22.0.1, SVG Export Plug-In . SVG Version: 6.00 Build 0)  -->
<svg version="1.1" id="圖層_1" xmlns="http://www.w3.org/2000/svg" xmlns:xlink="http://www.w3.org/1999/xlink" x="0px" y="0px"
	 viewBox="0 0 20 20" style="enable-background:new 0 0 20 20;" xml:space="preserve">
<style type="text/css">
	.st0{fill:#C1C1C1;}
</style>
<title>add2</title>
<path class="st0" d="M17.3,4.1h-6.9c-0.3,0-0.6-0.3-0.6-0.6V3.2c0-0.3,0.3-0.6,0.6-0.6h6.9c0.3,0,0.6,0.3,0.6,0.6v0.3
	C18,3.8,17.7,4.1,17.3,4.1z"/>
<path class="st0" d="M17.3,10.2h-6.9c-0.3,0-0.6-0.3-0.6-0.6V9.3c0-0.3,0.3-0.6,0.6-0.6h6.9C17.7,8.7,18,9,18,9.3v0.3
	C18,10,17.7,10.2,17.3,10.2z"/>
<path class="st0" d="M17.3,16.4h-6.9c-0.3,0-0.6-0.3-0.6-0.6v-0.3c0-0.3,0.3-0.6,0.6-0.6h6.9c0.3,0,0.6,0.3,0.6,0.6v0.3
	C18,16.1,17.7,16.4,17.3,16.4z"/>
<g>
	<path d="M2.3,5.6C1.7,5,1.5,4.3,1.5,3.5c0-0.8,0.3-1.6,0.8-2.2h0.5C2.2,1.9,2,2.6,2,3.5C2,4.3,2.2,5,2.7,5.6H2.3z"/>
	<path d="M7.2,3.1H3.1V2.7h4.1V3.1z"/>
	<path d="M7.5,5.6C8,5,8.3,4.3,8.3,3.5c0-0.8-0.3-1.5-0.8-2.2H8c0.5,0.6,0.8,1.3,0.8,2.2C8.8,4.3,8.5,5,8,5.6H7.5z"/>
	<path d="M2.3,11.6C1.7,11,1.5,10.3,1.5,9.5c0-0.8,0.3-1.6,0.8-2.2h0.5C2.2,7.9,2,8.6,2,9.5c0,0.8,0.3,1.5,0.8,2.2H2.3z"/>
	<path d="M7.2,10.9H3.1v-0.4h4.1V10.9z M6.8,7.5H3.4V7.1h3.4V7.5z"/>
	<path d="M7.5,11.6C8,11,8.3,10.3,8.3,9.5c0-0.8-0.3-1.5-0.8-2.2H8c0.5,0.6,0.8,1.3,0.8,2.2c0,0.9-0.3,1.6-0.8,2.2H7.5z"/>
	<path d="M2.3,17.6c-0.5-0.6-0.8-1.3-0.8-2.2c0-0.8,0.3-1.6,0.8-2.2h0.5C2.2,13.9,2,14.6,2,15.5c0,0.8,0.3,1.5,0.8,2.2H2.3z"/>
	<path d="M7.2,16.9H3.1v-0.4h4.1V16.9z M7,13.5H3.3v-0.4H7V13.5z M6.8,15.2H3.5v-0.4h3.2V15.2z"/>
	<path d="M7.5,17.6C8,17,8.3,16.3,8.3,15.5c0-0.8-0.3-1.5-0.8-2.2H8c0.5,0.6,0.8,1.3,0.8,2.2c0,0.9-0.3,1.6-0.8,2.2H7.5z"/>
</g>
</svg>
