<?xml version="1.0" encoding="utf-8"?>
<!-- Generator: Adobe Illustrator 22.0.1, SVG Export Plug-In . SVG Version: 6.00 Build 0)  -->
<svg version="1.1" id="圖層_1" xmlns="http://www.w3.org/2000/svg" xmlns:xlink="http://www.w3.org/1999/xlink" x="0px" y="0px"
	 viewBox="0 0 20 20" style="enable-background:new 0 0 20 20;" xml:space="preserve">
<style type="text/css">
	.st0{fill:#C1C1C1;}
</style>
<title>add2</title>
<path class="st0" d="M17.3,4.1h-6.9c-0.3,0-0.6-0.3-0.6-0.6V3.2c0-0.3,0.3-0.6,0.6-0.6h6.9c0.3,0,0.6,0.3,0.6,0.6v0.3
	C18,3.8,17.7,4.1,17.3,4.1z"/>
<path class="st0" d="M17.3,10.2h-6.9c-0.3,0-0.6-0.3-0.6-0.6V9.3c0-0.3,0.3-0.6,0.6-0.6h6.9C17.7,8.7,18,9,18,9.3v0.3
	C18,10,17.7,10.2,17.3,10.2z"/>
<path class="st0" d="M17.3,16.4h-6.9c-0.3,0-0.6-0.3-0.6-0.6v-0.3c0-0.3,0.3-0.6,0.6-0.6h6.9c0.3,0,0.6,0.3,0.6,0.6v0.3
	C18,16.1,17.7,16.4,17.3,16.4z"/>
<g>
	<path d="M3,5.7C2.5,5.1,2.3,4.4,2.3,3.5c0-0.8,0.3-1.6,0.8-2.2h0.5C3,1.9,2.7,2.7,2.7,3.5C2.7,4.3,3,5,3.5,5.7H3z"/>
	<path d="M6.1,4.9H4V4.4h0.8V1.8L4,2.1V1.6l1.3-0.4v3.2h0.8V4.9z"/>
	<path d="M6.4,5.7C6.9,5,7.2,4.3,7.2,3.5c0-0.8-0.3-1.5-0.8-2.2h0.5c0.5,0.6,0.8,1.3,0.8,2.2c0,0.9-0.3,1.6-0.8,2.2H6.4z"/>
	<path d="M3,11.7c-0.5-0.6-0.8-1.3-0.8-2.2c0-0.8,0.3-1.6,0.8-2.2h0.5C3,7.9,2.7,8.7,2.7,9.5c0,0.8,0.3,1.5,0.8,2.2H3z"/>
	<path d="M6,10.9H3.8v-0.4l1-1C5.1,9.2,5.2,9,5.3,8.8c0.1-0.2,0.2-0.3,0.2-0.5c0-0.4-0.2-0.6-0.6-0.6C4.6,7.7,4.3,7.8,4,8.1V7.6
		c0.3-0.2,0.6-0.3,1-0.3c0.3,0,0.6,0.1,0.8,0.3C5.9,7.7,6,7.9,6,8.2C6,8.4,6,8.7,5.9,8.9C5.7,9.1,5.5,9.3,5.2,9.6l-0.8,0.8v0H6V10.9
		z"/>
	<path d="M6.4,11.7c0.5-0.6,0.8-1.3,0.8-2.2c0-0.8-0.3-1.5-0.8-2.2h0.5c0.5,0.6,0.8,1.3,0.8,2.2c0,0.9-0.3,1.6-0.8,2.2H6.4z"/>
	<path d="M3,17.7c-0.5-0.6-0.8-1.3-0.8-2.2c0-0.8,0.3-1.6,0.8-2.2h0.5c-0.5,0.6-0.8,1.4-0.8,2.2c0,0.8,0.3,1.5,0.8,2.2H3z"/>
	<path d="M3.9,16.2c0.2,0.2,0.5,0.3,0.8,0.3c0.2,0,0.4-0.1,0.5-0.2c0.1-0.1,0.2-0.3,0.2-0.4c0-0.4-0.3-0.6-0.9-0.6H4.2v-0.4h0.3
		c0.5,0,0.8-0.2,0.8-0.6c0-0.4-0.2-0.5-0.6-0.5c-0.2,0-0.5,0.1-0.7,0.2v-0.5c0.2-0.1,0.5-0.2,0.8-0.2c0.3,0,0.6,0.1,0.8,0.2
		c0.2,0.2,0.3,0.4,0.3,0.6c0,0.5-0.2,0.8-0.7,0.9v0c0.3,0,0.5,0.1,0.6,0.3C5.9,15.4,6,15.6,6,15.8c0,0.3-0.1,0.6-0.4,0.8
		s-0.5,0.3-0.9,0.3c-0.3,0-0.6-0.1-0.8-0.2V16.2z"/>
	<path d="M6.4,17.7c0.5-0.6,0.8-1.3,0.8-2.2c0-0.8-0.3-1.5-0.8-2.2h0.5c0.5,0.6,0.8,1.3,0.8,2.2c0,0.9-0.3,1.6-0.8,2.2H6.4z"/>
</g>
</svg>
