<?xml version="1.0" encoding="utf-8"?>
<!-- Generator: Adobe Illustrator 22.0.1, SVG Export Plug-In . SVG Version: 6.00 Build 0)  -->
<svg version="1.1" id="圖層_1" xmlns="http://www.w3.org/2000/svg" xmlns:xlink="http://www.w3.org/1999/xlink" x="0px" y="0px"
	 viewBox="0 0 20 20" style="enable-background:new 0 0 20 20;" xml:space="preserve">
<style type="text/css">
	.st0{fill:#C1C1C1;}
</style>
<title>add2</title>
<g>
	<path d="M5.7,3.5H1.6V3.1h4.1V3.5z"/>
	<path d="M8.9,3.6L8.6,3.9C8.3,3.7,8.1,3.4,7.8,3.2l0.3-0.3C8.4,3.1,8.6,3.3,8.9,3.6z"/>
	<path d="M5.7,11.3H1.6v-0.4h4.1V11.3z M5.4,8H1.9V7.6h3.4V8z"/>
	<path d="M8.9,9.6L8.6,9.9C8.3,9.7,8.1,9.4,7.8,9.2l0.3-0.3C8.4,9.1,8.6,9.3,8.9,9.6z"/>
	<path d="M5.7,17.4H1.6v-0.4h4.1V17.4z M5.5,13.9H1.8v-0.4h3.7V13.9z M5.3,15.6H2v-0.4h3.2V15.6z"/>
	<path d="M8.9,15.6l-0.3,0.3c-0.2-0.3-0.5-0.5-0.8-0.7l0.3-0.3C8.4,15.1,8.6,15.3,8.9,15.6z"/>
</g>
<path class="st0" d="M17.3,4.1h-6.9c-0.3,0-0.6-0.3-0.6-0.6V3.2c0-0.3,0.3-0.6,0.6-0.6h6.9c0.3,0,0.6,0.3,0.6,0.6v0.3
	C18,3.8,17.7,4.1,17.3,4.1z"/>
<path class="st0" d="M17.3,10.2h-6.9c-0.3,0-0.6-0.3-0.6-0.6V9.3c0-0.3,0.3-0.6,0.6-0.6h6.9C17.7,8.7,18,9,18,9.3v0.3
	C18,10,17.7,10.2,17.3,10.2z"/>
<path class="st0" d="M17.3,16.4h-6.9c-0.3,0-0.6-0.3-0.6-0.6v-0.3c0-0.3,0.3-0.6,0.6-0.6h6.9c0.3,0,0.6,0.3,0.6,0.6v0.3
	C18,16.1,17.7,16.4,17.3,16.4z"/>
</svg>
