<?xml version="1.0" encoding="utf-8"?>
<!-- Generator: Adobe Illustrator 22.0.1, SVG Export Plug-In . SVG Version: 6.00 Build 0)  -->
<svg version="1.1" id="圖層_1" xmlns="http://www.w3.org/2000/svg" xmlns:xlink="http://www.w3.org/1999/xlink" x="0px" y="0px"
	 viewBox="0 0 20 20" style="enable-background:new 0 0 20 20;" xml:space="preserve">
<style type="text/css">
	.st0{fill:#C1C1C1;}
</style>
<title>add2</title>
<path class="st0" d="M17.3,4.1h-6.9c-0.3,0-0.6-0.3-0.6-0.6V3.2c0-0.3,0.3-0.6,0.6-0.6h6.9c0.3,0,0.6,0.3,0.6,0.6v0.3
	C18,3.8,17.7,4.1,17.3,4.1z"/>
<path class="st0" d="M17.3,10.2h-6.9c-0.3,0-0.6-0.3-0.6-0.6V9.3c0-0.3,0.3-0.6,0.6-0.6h6.9C17.7,8.7,18,9,18,9.3v0.3
	C18,10,17.7,10.2,17.3,10.2z"/>
<path class="st0" d="M17.3,16.4h-6.9c-0.3,0-0.6-0.3-0.6-0.6v-0.3c0-0.3,0.3-0.6,0.6-0.6h6.9c0.3,0,0.6,0.3,0.6,0.6v0.3
	C18,16.1,17.7,16.4,17.3,16.4z"/>
<g>
	<path d="M2.3,6C1.7,5.5,1.5,4.7,1.5,3.9c0-0.8,0.3-1.6,0.8-2.2h0.5C2.2,2.3,2,3.1,2,3.9C2,4.7,2.2,5.4,2.7,6H2.3z"/>
	<path d="M7.2,3.6H5.4v1.4c0,0.1,0,0.2-0.1,0.3C5.2,5.4,5.2,5.4,5.1,5.4s-0.2,0-0.4,0c-0.1,0-0.2,0-0.3,0L4.2,5.1c0.2,0,0.3,0,0.4,0
		c0.1,0,0.2,0,0.3,0c0,0,0.1-0.1,0.1-0.1V3.6H3.1V3.2h1.8V2.6C5.3,2.4,5.6,2.2,6,1.9H3.6V1.5h3v0.4c-0.4,0.3-0.8,0.7-1.3,1v0.3h1.8
		V3.6z"/>
	<path d="M7.5,6C8,5.4,8.3,4.7,8.3,3.9c0-0.8-0.3-1.5-0.8-2.2H8C8.5,2.3,8.8,3,8.8,3.9C8.8,4.7,8.5,5.5,8,6H7.5z"/>
	<path d="M2.3,12c-0.5-0.6-0.8-1.3-0.8-2.2c0-0.8,0.3-1.6,0.8-2.2h0.5C2.2,8.3,2,9.1,2,9.9c0,0.8,0.3,1.5,0.8,2.2H2.3z"/>
	<path d="M7.2,11.4H3.1V11H4l0.2-1.4H3.1V9.1h1.1l0.2-1.2h-1V7.5h3.2L6.5,9.1h0.7v0.4H6.4L6.3,11h0.9V11.4z M6,9.5H4.6L4.4,11h1.4
		L6,9.5z M6.1,7.9H4.9L4.7,9.1H6L6.1,7.9z"/>
	<path d="M7.5,12c0.5-0.6,0.8-1.3,0.8-2.2c0-0.8-0.3-1.5-0.8-2.2H8C8.5,8.3,8.8,9,8.8,9.9c0,0.9-0.3,1.6-0.8,2.2H7.5z"/>
	<path d="M2.3,18c-0.5-0.6-0.8-1.3-0.8-2.2c0-0.8,0.3-1.6,0.8-2.2h0.5C2.2,14.3,2,15.1,2,15.9c0,0.8,0.3,1.5,0.8,2.2H2.3z"/>
	<path d="M4.7,17.1c-0.6,0.2-1,0.3-1.4,0.4l-0.2-0.4C3.5,17.1,4,17,4.5,16.8L4.7,17.1z M7.1,14.4H6.6v-0.4h-3v0.4H3.2v-0.8h1.7
		c0-0.1-0.1-0.1-0.1-0.3l0.4-0.1c0,0.1,0.1,0.2,0.1,0.3h1.7V14.4z M6.7,16.7H3.6V15h1.3v-0.3H3.9v-0.4h2.6v0.4H5.3V15h1.4V16.7z
		 M4.9,15.7v-0.3H4v0.3H4.9z M4.9,16.3V16H4v0.3H4.9z M6.3,15.7v-0.3h-1v0.3H6.3z M6.3,16.3V16h-1v0.3H6.3z M7.2,17.2L7,17.5
		c-0.5-0.2-1-0.3-1.5-0.3l0.2-0.4C6.2,16.9,6.7,17,7.2,17.2z"/>
	<path d="M7.5,18c0.5-0.6,0.8-1.3,0.8-2.2c0-0.8-0.3-1.5-0.8-2.2H8c0.5,0.6,0.8,1.3,0.8,2.2c0,0.9-0.3,1.6-0.8,2.2H7.5z"/>
</g>
</svg>
