<?xml version="1.0" encoding="utf-8"?>
<!-- Generator: Adobe Illustrator 22.0.1, SVG Export Plug-In . SVG Version: 6.00 Build 0)  -->
<svg version="1.1" id="圖層_1" xmlns="http://www.w3.org/2000/svg" xmlns:xlink="http://www.w3.org/1999/xlink" x="0px" y="0px"
	 viewBox="0 0 20 20" style="enable-background:new 0 0 20 20;" xml:space="preserve">
<style type="text/css">
	.st0{fill:#C1C1C1;}
</style>
<title>add2</title>
<path class="st0" d="M17.3,4.1h-6.9c-0.3,0-0.6-0.3-0.6-0.6V3.2c0-0.3,0.3-0.6,0.6-0.6h6.9c0.3,0,0.6,0.3,0.6,0.6v0.3
	C18,3.8,17.7,4.1,17.3,4.1z"/>
<path class="st0" d="M17.3,10.2h-6.9c-0.3,0-0.6-0.3-0.6-0.6V9.3c0-0.3,0.3-0.6,0.6-0.6h6.9C17.7,8.7,18,9,18,9.3v0.3
	C18,10,17.7,10.2,17.3,10.2z"/>
<path class="st0" d="M17.3,16.4h-6.9c-0.3,0-0.6-0.3-0.6-0.6v-0.3c0-0.3,0.3-0.6,0.6-0.6h6.9c0.3,0,0.6,0.3,0.6,0.6v0.3
	C18,16.1,17.7,16.4,17.3,16.4z"/>
<g>
	<path d="M2.3,6C1.7,5.5,1.5,4.7,1.5,3.9c0-0.8,0.3-1.6,0.8-2.2h0.5C2.2,2.3,2,3.1,2,3.9C2,4.7,2.2,5.4,2.7,6H2.3z"/>
	<path d="M7,4.1H5.4v1.4H4.9V4.1H3.3V1.5H7V4.1z M4.9,2.5V1.9H3.7v0.7H4.9z M4.9,3.7V3H3.7v0.7H4.9z M6.5,2.5V1.9H5.4v0.7H6.5z
		 M6.5,3.7V3H5.4v0.7H6.5z"/>
	<path d="M7.5,6C8,5.4,8.3,4.7,8.3,3.9c0-0.8-0.3-1.5-0.8-2.2H8C8.5,2.3,8.8,3,8.8,3.9C8.8,4.7,8.5,5.5,8,6H7.5z"/>
	<path d="M2.3,12c-0.5-0.6-0.8-1.3-0.8-2.2c0-0.8,0.3-1.6,0.8-2.2h0.5C2.2,8.3,2,9.1,2,9.9c0,0.8,0.3,1.5,0.8,2.2H2.3z"/>
	<path d="M7.1,9.9C7.1,10.6,7,11,6.9,11.1c-0.1,0.2-0.3,0.2-0.7,0.3c-0.4,0-1.1,0-2.2,0c-0.3,0-0.5,0-0.6-0.1S3.2,11,3.2,10.9
		c0-0.1,0.1-0.3,0.2-0.5s0.4-0.5,0.8-0.9C4.6,9,5.1,8.5,5.8,7.9H3.3V7.5h3.2v0.4C6.1,8.3,5.6,8.6,5.3,9c-0.4,0.3-0.7,0.7-1,1
		c-0.3,0.3-0.5,0.5-0.5,0.6s-0.1,0.2-0.1,0.2c0,0.1,0,0.2,0.1,0.2c0.1,0,0.5,0,1.3,0c0.6,0,0.9,0,1.1,0c0.1,0,0.2,0,0.3-0.1
		c0,0,0.1-0.1,0.1-0.3s0.1-0.5,0.1-0.8L7.1,9.9z"/>
	<path d="M7.5,12c0.5-0.6,0.8-1.3,0.8-2.2c0-0.8-0.3-1.5-0.8-2.2H8C8.5,8.3,8.8,9,8.8,9.9c0,0.9-0.3,1.6-0.8,2.2H7.5z"/>
	<path d="M2.3,18c-0.5-0.6-0.8-1.3-0.8-2.2c0-0.8,0.3-1.6,0.8-2.2h0.5C2.2,14.3,2,15.1,2,15.9c0,0.8,0.3,1.5,0.8,2.2H2.3z"/>
	<path d="M7.2,13.9H5.3l0,0.5H7V17c0,0.1,0,0.2-0.1,0.2c-0.1,0.1-0.1,0.1-0.2,0.1s-0.2,0-0.4,0c-0.1,0-0.2,0-0.4,0L5.7,17
		c0.4,0,0.7,0,0.7,0c0.1,0,0.1-0.1,0.1-0.2v-2.1H5.3c0,0.1,0,0.2-0.1,0.3c0.6,0.5,1,0.9,1.2,1.3l-0.3,0.3c-0.3-0.4-0.6-0.9-1-1.2
		c-0.2,0.5-0.5,0.9-1,1.2l-0.3-0.3c0.4-0.2,0.6-0.5,0.8-0.7c0.1-0.2,0.3-0.5,0.3-0.9H3.7v2.7H3.3v-3.1h1.6c0-0.1,0-0.3,0-0.5H3.1
		v-0.4h4.1V13.9z"/>
	<path d="M7.5,18c0.5-0.6,0.8-1.3,0.8-2.2c0-0.8-0.3-1.5-0.8-2.2H8c0.5,0.6,0.8,1.3,0.8,2.2c0,0.9-0.3,1.6-0.8,2.2H7.5z"/>
</g>
</svg>
