<?xml version="1.0" encoding="utf-8"?>
<!-- Generator: Adobe Illustrator 22.0.1, SVG Export Plug-In . SVG Version: 6.00 Build 0)  -->
<svg version="1.1" id="圖層_1" xmlns="http://www.w3.org/2000/svg" xmlns:xlink="http://www.w3.org/1999/xlink" x="0px" y="0px"
	 viewBox="0 0 20 20" style="enable-background:new 0 0 20 20;" xml:space="preserve">
<style type="text/css">
	.st0{fill:#C1C1C1;}
</style>
<title>add2</title>
<g>
	<path d="M2,5.2V4.8h0.8V2.2L1.9,2.4V2l1.4-0.4v3.2h0.8v0.5H2z"/>
	<path d="M8.2,3.6L7.9,3.9C7.7,3.7,7.4,3.4,7.1,3.2l0.3-0.3C7.7,3.1,8,3.3,8.2,3.6z"/>
	<path d="M1.8,11.2v-0.4l1.1-1C3.3,9.3,3.6,9,3.6,8.7c0-0.2-0.1-0.4-0.2-0.5C3.3,8.1,3.1,8.1,2.9,8.1c-0.3,0-0.6,0.1-1,0.4V8
		c0.4-0.2,0.7-0.3,1-0.3c0.4,0,0.7,0.1,0.9,0.3s0.3,0.4,0.3,0.7c0,0.2,0,0.3-0.1,0.5S3.8,9.5,3.6,9.7c-0.2,0.2-0.4,0.4-0.7,0.7
		l-0.4,0.4v0h1.7v0.5H1.8z"/>
	<path d="M8.2,9.6L7.9,9.9C7.7,9.7,7.4,9.4,7.1,9.2l0.3-0.3C7.7,9.1,8,9.3,8.2,9.6z"/>
	<path d="M1.9,17.1v-0.5c0.3,0.2,0.6,0.3,0.9,0.3c0.2,0,0.4-0.1,0.6-0.2c0.1-0.1,0.2-0.3,0.2-0.4c0-0.2-0.1-0.4-0.3-0.5
		c-0.2-0.1-0.4-0.2-0.7-0.2H2.2v-0.4h0.3c0.3,0,0.5-0.1,0.6-0.2s0.2-0.2,0.2-0.4c0-0.2-0.1-0.3-0.2-0.4c-0.1-0.1-0.3-0.1-0.5-0.1
		c-0.3,0-0.5,0.1-0.7,0.2v-0.5c0.3-0.1,0.6-0.2,0.9-0.2c0.3,0,0.6,0.1,0.8,0.2C3.9,14,4,14.2,4,14.5c0,0.4-0.2,0.7-0.7,0.9v0
		c0.3,0,0.5,0.1,0.6,0.3C4,15.8,4.1,16,4.1,16.2c0,0.3-0.1,0.6-0.4,0.8s-0.6,0.3-1,0.3C2.4,17.3,2.1,17.2,1.9,17.1z"/>
	<path d="M8.2,15.6l-0.3,0.3c-0.2-0.3-0.5-0.5-0.8-0.7l0.3-0.3C7.7,15.1,8,15.3,8.2,15.6z"/>
</g>
<path class="st0" d="M17.2,4.1h-6.9c-0.3,0-0.6-0.3-0.6-0.6V3.2c0-0.3,0.3-0.6,0.6-0.6h6.9c0.3,0,0.6,0.3,0.6,0.6v0.3
	C17.8,3.8,17.5,4.1,17.2,4.1z"/>
<path class="st0" d="M17.2,10.2h-6.9c-0.3,0-0.6-0.3-0.6-0.6V9.3c0-0.3,0.3-0.6,0.6-0.6h6.9c0.3,0,0.6,0.3,0.6,0.6v0.3
	C17.8,10,17.5,10.2,17.2,10.2z"/>
<path class="st0" d="M17.2,16.4h-6.9c-0.3,0-0.6-0.3-0.6-0.6v-0.3c0-0.3,0.3-0.6,0.6-0.6h6.9c0.3,0,0.6,0.3,0.6,0.6v0.3
	C17.8,16.1,17.5,16.4,17.2,16.4z"/>
</svg>
